<?xml version="1.0" encoding="UTF-8"?>
<mxfile host="app.diagrams.net" modified="2025-05-11T23:00:00.000Z" agent="5.0 (Macintosh)" version="20.8.17" type="device">
  <diagram id="RetailSalesModel" name="Retail Sales Entity">
    <mxGraphModel dx="1032" dy="586" grid="1" gridSize="10" guides="1" tooltips="1" connect="1" arrows="1" fold="1" page="1" pageScale="1" pageWidth="850" pageHeight="1100" math="0" shadow="0">
      <root>
        <mxCell id="0"/>
        <mxCell id="1" parent="0"/>
        <!-- === Entity Vertices === -->
        <mxCell id="CUST" value="Customers" style="rounded=1;whiteSpace=wrap;html=1;fillColor=#DAE8FC;strokeColor=#6C8EBF;" vertex="1" parent="1">
          <mxGeometry x="20"  y="20"  width="120" height="60" as="geometry"/>
        </mxCell>
        <mxCell id="INV" value="Invoices"  style="rounded=1;whiteSpace=wrap;html=1;fillColor=#E1D5E7;strokeColor=#9673A6;" vertex="1" parent="1">
          <mxGeometry x="220" y="20"  width="120" height="60" as="geometry"/>
        </mxCell>
        <mxCell id="LINE" value="Line Items" style="rounded=1;whiteSpace=wrap;html=1;fillColor=#FFE6CC;strokeColor=#D79B00;" vertex="1" parent="1">
          <mxGeometry x="420" y="20"  width="120" height="60" as="geometry"/>
        </mxCell>
        <mxCell id="PROD" value="Products" style="rounded=1;whiteSpace=wrap;html=1;fillColor=#D5E8D4;strokeColor=#82B366;" vertex="1" parent="1">
          <mxGeometry x="420" y="200" width="120" height="60" as="geometry"/>
        </mxCell>
        <mxCell id="PAY" value="Payments" style="rounded=1;whiteSpace=wrap;html=1;fillColor=#F8CECC;strokeColor=#B85450;" vertex="1" parent="1">
          <mxGeometry x="220" y="200" width="120" height="60" as="geometry"/>
        </mxCell>
        <!-- === Edges (with simple 1‑to‑many direction) === -->
        <mxCell id="e1" style="endArrow=block;html=1;strokeColor=#000000;" edge="1" parent="1" source="CUST" target="INV">
          <mxGeometry relative="1" as="geometry"/>
        </mxCell>
        <mxCell id="e2" style="endArrow=block;html=1;strokeColor=#000000;" edge="1" parent="1" source="INV"  target="LINE">
          <mxGeometry relative="1" as="geometry"/>
        </mxCell>
        <mxCell id="e3" style="endArrow=block;html=1;strokeColor=#000000;" edge="1" parent="1" source="PROD" target="LINE">
          <mxGeometry relative="1" as="geometry"/>
        </mxCell>
        <mxCell id="e4" style="endArrow=block;html=1;strokeColor=#000000;" edge="1" parent="1" source="PAY"  target="INV">
          <mxGeometry relative="1" as="geometry"/>
        </mxCell>
      </root>
    </mxGraphModel>
  </diagram>
</mxfile>
